<?xml version="1.0" encoding="UTF-8" standalone="no"?>
<svg
   xmlns:dc="http://purl.org/dc/elements/1.1/"
   xmlns:cc="http://creativecommons.org/ns#"
   xmlns:rdf="http://www.w3.org/1999/02/22-rdf-syntax-ns#"
   xmlns:svg="http://www.w3.org/2000/svg"
   xmlns="http://www.w3.org/2000/svg"
   id="svg8"
   version="1.1"
   viewBox="0 0 26.458333 26.458334"
   height="100"
   width="100">
  <style
     id="style836">
.splash {
    opacity:1;
    stroke-opacity:0.1865804;
    fill-opacity:1;
    stroke:#f2f2f2;
    stroke-width:0.30542335;
    fill:#f2f2f2;
}</style>
  <defs
     id="defs2" />
  <metadata
     id="metadata5">
    <rdf:RDF>
      <cc:Work
         rdf:about="">
        <dc:format>image/svg+xml</dc:format>
        <dc:type
           rdf:resource="http://purl.org/dc/dcmitype/StillImage" />
        <dc:title></dc:title>
      </cc:Work>
    </rdf:RDF>
  </metadata>
  <g
     transform="translate(0,-270.54165)"
     id="layer1">
    <path
       style="opacity:1;fill:#f2f2f2;fill-opacity:1;stroke:#f2f2f2;stroke-width:0.30542335;stroke-opacity:0.1865804"
       d="m 12.50425,270.70712 a 2.3297478,4.892021 0 0 0 -2.162523,3.0851 6.9892437,3.8393078 0 0 0 -3.1691774,-0.42196 6.9892437,3.8393078 0 0 0 -6.9893187,3.83892 6.9892437,3.8393078 0 0 0 4.227847,3.52601 4.3712792,5.6041517 0 0 0 -0.1928197,1.64515 4.3712792,5.6041517 0 0 0 4.2241691,5.59448 5.2119102,4.8300973 0 0 0 -2.3506135,4.03467 5.2119102,4.8300973 0 0 0 5.2119092,4.82979 5.2119102,4.8300973 0 0 0 4.469004,-2.3563 3.698775,5.7899241 0 0 0 2.712085,1.86121 3.698775,5.7899241 0 0 0 3.698775,-5.79022 3.698775,5.7899241 0 0 0 -0.031,-0.69152 4.4193157,3.3439134 0 0 0 3.34571,-3.24086 4.4193157,3.3439134 0 0 0 -0.942557,-2.06237 6.0525408,2.6317835 0 0 0 1.662873,-1.80773 6.0525408,2.6317835 0 0 0 -4.669704,-2.55949 2.3537659,4.8300973 0 0 0 0.394572,-2.67329 2.3537659,4.8300973 0 0 0 -2.353767,-4.82981 2.3537659,4.8300973 0 0 0 -1.640805,1.36745 4.4913697,4.8300973 0 0 0 -3.187042,-1.42908 4.4913697,4.8300973 0 0 0 -0.401401,0.0223 2.3297478,4.892021 0 0 0 -1.856217,-1.94249 z"
       id="path815"
       class="splash" />
  </g>
</svg>
